<?xml version="1.0" encoding="UTF-8"?>
<svg id="Layer_1" xmlns="http://www.w3.org/2000/svg" version="1.1" viewBox="0 0 500 500">
  <!-- Generator: Adobe Illustrator 29.1.0, SVG Export Plug-In . SVG Version: 2.1.0 Build 142)  -->
  <defs>
    <style>
      .st0 {
        fill: #0e0904;
      }

      .st1 {
        fill: #48310d;
      }

      .st2 {
        fill: #b38852;
      }

      .st3 {
        fill: #82520a;
      }

      .st4 {
        fill: #0d0b08;
      }

      .st5 {
        fill: #9e6913;
      }

      .st6 {
        fill: #38250a;
      }

      .st7 {
        fill: #796140;
      }

      .st8 {
        fill: #9f6913;
      }

      .st9 {
        fill: #372c1d;
      }

      .st10 {
        fill: #1e1407;
      }

      .st11 {
        fill: #c58625;
      }

      .st12 {
        fill: #3c2f20;
      }

      .st13 {
        fill: #97784d;
      }

      .st14 {
        fill: #21190f;
      }

      .st15 {
        fill: #53412d;
      }

      .st16 {
        fill: #42301f;
      }

      .st17 {
        fill: #100a05;
      }

      .st18 {
        fill: #30261b;
      }

      .st19 {
        fill: #ebc695;
      }

      .st20 {
        fill: #81510a;
      }

      .st21 {
        fill: #020102;
      }

      .st22 {
        fill: #cca267;
      }

      .st23 {
        fill: #79603e;
      }

      .st24 {
        fill: #a48968;
      }

      .st25 {
        fill: #c58524;
      }
    </style>
  </defs>
  <path class="st21" d="M258.8,214.7l-4.7,213.6c1.7,13-27.3,13.2-31.3,4.9-3.2-6.7-1.3-44.1-1-54.2,1.4-54.3,6-108.6,8.1-162.8-13.5-.9-27.7-1-40.6-5.6-38-13.5-52.8-85-25.1-114.4,25.7-27.3,130.1-48.3,161.5-25,22.2,16.4,31.4,85.4,18.1,109-11.6,20.6-63.2,30.3-85.1,34.6Z"/>
  <path class="st22" d="M276.4,83.7c-.4,1.7-1.9,3.1-1.9,3.3q-4.7-.2,0,0c-3.7,25.6-.2,59.7,11.2,83.1-.3,1-.7,1.9-1.3,2.8-8.8,13.6-73.2,20.1-90.7,17.7l-4.7-2.9c-9.6-14-14.6-26.9-17.3-44l15.5-4.2c-.3-2.3-3.3-.4-4.9,0-3.3.7-6.5,1.8-9.7,2.6-1-4.4-3.8-7.1,2.1-7.5,0-2.3-2.6,0-3.2-1.3-1.7-3.9,3.4-26.7,5.6-31.2-2.5-1.9,2-6,4.1-5.3,6.1-.2,13.4-1.9,18.5-5.8,22.6-5,45.5-7.9,68.5-9.4,1.3,0,2.6.3,4,.7s2.7,1,4.1,1.6Z"/>
  <path class="st8" d="M246.4,256.9c1.6,6.3,1.1,14.2,0,20.8.1,5.7.6,5.6,1.3-.3-.8-4.4-1.2-9.9.4-14,2.2-6.1,4.3-1.9,4.9,2.8-.7,30.2-.5,60.4-1.4,90.6-.7,23.2-3.4,46.6-1.4,69.8l-16.2,1.6c1.7,1.7,5.6.5,8.7,1s4.3,1.4,6.2,2.6c-7.4,3.8-21.5,6.6-23.1-4.5s.3-27,.5-37c1.2-48,4.5-97.3,7.3-145.3,4.2-2,11.4,7.9,12.9,11.8Z"/>
  <path class="st3" d="M312,73c6.7-3.4,13.3,3,16.8,8.1,14,20.2,22.5,70.1,12.7,93.4-9.9,23.6-24.6,3.7-31-10.5-5.9-13.1-8.6-28.2-9.5-42.5-.7-10.8,0-42.9,11-48.5Z"/>
  <path class="st2" d="M285.6,170c2.1,4.3,7.8,12.1,11,16,3.8,4.7,8.6,7.8,11.9,12.5-6.1,2.4-46.7,14.3-49.6,11.9s.6-3.9-.1-6.2c-2.9-9.2-16.5-12.5-23.6-4.8s-2.7,12.8-5.4,13.2c-8.3,1.4-17.9-1.4-23.7-7.5.5-1,.3-1.9-.7-2.6-9.2-1.3-11.7-8-16.5-15,33.2,1.6,67-.7,96.6-17.6Z"/>
  <path class="st5" d="M300.1,84.2c-4.8,15-2.1,41.3,1.3,56.6,1.1,6.6,2.4,13.3,3.9,19.9-.4,1.2-16.5,12.2-17.7,6-7.5-16.2-18-68.7-7.3-84.1,5-2.6,16.9-3.8,19.9,1.6Z"/>
  <path class="st19" d="M184.7,88.8c4.7-5.8,11.5-8.2,18.6-10.6,25.7-8.7,53.5-13.4,80.5-13.2,1,.6-4.7,13-5.2,13.5-1,1-3.2,1-3.4,1.3s1.8.9,1,3.9c-30.2,1.3-62.2,5.9-91.6,13.5-1.2.3-2.5.2-3.5-.5,3.3-2.2,7.7-2.8,11.7-3.1,4.4-2.7,3.4-2.9-2.9-.6-8.1,4.4-14.8,4.7-5.3-4.1Z"/>
  <path class="st5" d="M175.5,101c-2.5,6.6-4.2,13.4-5.4,20.4s1.2,13.9-4.7,14.3l4.2.3c-.3,6.8,2,7.3-6,8.6l6.8-.4c1,12.7,5.8,29.9,12.4,41.1,3.2,6.5-12,3.7-15.3,0-16.9-25-20.3-52.9-4.6-79.3,3.2-4,6.3-6.3,9.3-6.7,3.2-.4,4.3.2,3.3,1.9Z"/>
  <path class="st3" d="M253.1,266.2c-1.5-2-2.2-4.3-4.9-2.8-.4-3.1-.9-5.2-1.7-6.5-5.8-2.1-8.6-8-12.9-11.8.5-8.4-.5-33.5,2.7-39.5s12.7-8.5,16.8-4.6c1.9,1.9,2.6,6.6,2.8,9.4,1.5,15.1-2.4,39.6-2.7,55.9Z"/>
  <path class="st20" d="M301.4,140.8c3.6,16.3,9.1,41.8,26.7,47.7-.5,2.7-14.3,8.8-16.6,8.1-7.5-2.4-20.6-22.6-23.9-29.8,2.7,1.4,16.5-8,16.9-8.9,1.1-2.2-5.5-13.3-3-17.1Z"/>
  <path class="st25" d="M280.2,82.6c1.4-2,2.5-2.2,4.8-2.7l-4.4-.9c.1-.7,6.9-12.7,7.5-13.1,1.9-1.5,19.3,1.2,22.8,2.2-3.6,4.5-9.2,10.6-10.9,16.1l-19.9-1.6Z"/>
  <path class="st3" d="M182.8,185.1c3.2,5.4,9.7,11.7,14.1,16.4l-2.1,2.6c5.3-1.9,7.9,4.1,12.6,5.7.5.9-1,1.2-1.7,1.1-18.1-.8-28.9-12.1-38.2-25.8l15,1.4.3-1.3Z"/>
  <path class="st11" d="M183.4,89.1c-2.7,7.8-6.4,11.2-11.2,9.9-2.9,2.2-5.2,5.5-9.3,6.7,4.4-7.4,11.5-16.5,20.5-16.6Z"/>
  <path class="st14" d="M184.7,88.8c-1.1,1.3-3,4.8-3.8,6.6,2.9-1,6.2-1.3,9.1-2.4,2-.8,3-.6,2.9.6-3.8,1.2-7.8,2-11.7,3.1-.4.1-3.8,4.6-4.1,5.3-.5-.4-1.1-.6-1.6-.9-1.1-.6-2.2-1.2-3.3-1.9.7-.6,3.1-.5,4.9-2s3-6.5,6.3-7.9l1.3-.3Z"/>
  <path class="st16" d="M205.5,202.6c4.2.6,8.3,0,12.5.1l-11.8,2.5c-.5-.5-2,0-.7-2.6Z"/>
  <path class="st9" d="M238.8,171.5c0,.7-.7,1.4-2.2,2-8.1,1-16.4.4-24.4,2.4-1.5-.5-1.2-1.1.9-1.6,8.4-.8,17.1-3,25.7-2.7Z"/>
  <path class="st4" d="M238.8,171.5c4.8-1.6,11.4-2.7,16.5-3,2-.1,4-1.1,5.2,1.3-8.1.4-16,2.7-24,3.7,0-1.3,1.2-1.6,2.2-2Z"/>
  <path class="st13" d="M229,93.6c1.2,0,1.3.5.3,1.3-7.1,1.6-14.1,2.9-21.3,3.6-.3-1,14.2-4.7,16.2-5.1s4.5.3,4.8.2Z"/>
  <path class="st15" d="M268.1,172c.8,2.3-4,2.5-5.5,2.8s-8,1.5-9.1-.3l14.6-2.5Z"/>
  <path class="st12" d="M274.5,86.9l-16.2,1.6c4.9-1.4,11.2-3,16.2-1.6Z"/>
  <path class="st23" d="M213.1,174.2l-.9,1.6-14-.4c4.6-2.1,10.4-.8,14.9-1.2Z"/>
  <path class="st18" d="M229,93.6c5.6-1.2,11.2-3.8,17-3.9.3,1.1-14.6,4.7-16.7,5.2l-.3-1.3Z"/>
  <path class="st7" d="M209.6,134.9c.7,2.2-5.5,3.1-6.8,3.2-2,.3-4,.8-5.2-1.4l12-1.8Z"/>
  <path class="st0" d="M248.2,263.4c-.3,4.6-.1,9.4-.4,14,0,1.2-.5,1.3-1.3.3.3-6.8-.3-14,0-20.8s1.9-11.6,2-16.9-1.4-12.1-1.3-18.3,0-7.9,2.1-6.5c-1.6,7.7,1.7,13.8,2.2,21s-2.7,19.2-3.2,27.2Z"/>
  <path class="st17" d="M244.9,417l-5.3-15.6c2.7-12.1,1.3-24.5,2.7-36.8.2-1.5-.7-4,1.3-4.2,0,10,.2,20.1.1,30.2,0,4-2.1,12.1-1.8,14.3.5,3.5,4.5,7.1,3,12.1Z"/>
  <path class="st1" d="M247.7,277.4c-.4,6.1-1.1,12.3-1.3,18.4-3.3.8,0-16.9,0-18.1l1.3-.3Z"/>
  <path class="st10" d="M332.5,132.5c-4.1,7.8,1.8,6.6,1.9,7.1.2.8-.7,5.2-3,4.3s1.2-7.4-5.1-3.5c1.5-3.3,1.9-7.2,6.2-7.9Z"/>
  <path class="st6" d="M317.8,93.4c-2.1,4.4-4.4,11.1-8.9,13.5,2.1-4.4,4.4-11.1,8.9-13.5Z"/>
  <path class="st24" d="M190,92.9c1.8-.7,5.1-4.2,8.7-3.7l.7,2.6c-2.1.7-4.3,1.1-6.5,1.7l-2.9-.6Z"/>
</svg>