<?xml version="1.0" encoding="UTF-8"?>
<svg id="Layer_1" xmlns="http://www.w3.org/2000/svg" version="1.1" viewBox="0 0 500 500">
  <!-- Generator: Adobe Illustrator 29.1.0, SVG Export Plug-In . SVG Version: 2.1.0 Build 142)  -->
  <defs>
    <style>
      .st0 {
        fill: #0e0904;
      }

      .st1 {
        fill: #48310d;
      }

      .st2 {
        fill: #b38852;
      }

      .st3 {
        fill: #82520a;
      }

      .st4 {
        fill: #0d0b08;
      }

      .st5 {
        fill: #9e6913;
      }

      .st6 {
        fill: #38250a;
      }

      .st7 {
        fill: #796140;
      }

      .st8 {
        fill: #9f6913;
      }

      .st9 {
        fill: #372c1d;
      }

      .st10 {
        fill: #1e1407;
      }

      .st11 {
        fill: #c58625;
      }

      .st12 {
        fill: #3c2f20;
      }

      .st13 {
        fill: #97784d;
      }

      .st14 {
        fill: #21190f;
      }

      .st15 {
        fill: #53412d;
      }

      .st16 {
        fill: #42301f;
      }

      .st17 {
        fill: #100a05;
      }

      .st18 {
        fill: #30261b;
      }

      .st19 {
        fill: #ebc695;
      }

      .st20 {
        fill: #81510a;
      }

      .st21 {
        fill: #020102;
      }

      .st22 {
        fill: #cca267;
      }

      .st23 {
        fill: #79603e;
      }

      .st24 {
        fill: #a48968;
      }

      .st25 {
        fill: #c58524;
      }
    </style>
  </defs>
  <path class="st21" d="M261,229.1l-5.5,209.9c0,3.7-2.7,6.9-6.3,7.7-8.5,1.8-13.6,1.4-18.9,1.3-3.4,0-6.7-.8-9.8-2s-4-.5-5.7-11.5c1.7-67.9,7.5-135.7,10.1-203.4-16.9-1.1-34.6-1.2-50.7-7-47.5-16.9-66-106.2-31.4-143,32.1-34.1,162.6-60.4,201.8-31.2,27.7,20.5,39.2,106.7,22.6,136.2-14.5,25.7-79,37.9-106.3,43.2h.1Z"/>
  <path class="st22" d="M283,65.4c-.5,2.1-2.4,3.9-2.4,4.1q-3.9-.2,0,0c-4.6,32-.2,74.6,14,103.8-.4,1.2-.9,2.4-1.6,3.5-11,17-91.5,25.1-113.3,22.1l-5.9-3.6c-12-17.5-18.2-33.6-21.6-55l19.4-5.2c-.4-2.9-4.1-.5-6.1,0-4.1.9-8.1,2.2-12.1,3.2-1.2-5.5-4.7-8.9,2.6-9.4,0-2.9-3.2,0-4-1.6-2.1-4.9,4.2-33.4,7-39-3.1-2.4,2.5-7.5,5.1-6.6,7.6-.2,16.7-2.4,23.1-7.2,28.2-6.2,56.9-9.9,85.6-11.7,1.6,0,3.2.4,5,.9s3.4,1.2,5.1,2v-.2Z"/>
  <path class="st8" d="M245.5,281.8c2,7.9,1.4,17.7,0,26,.1,7.1.7,7,1.6-.4-1-5.5-1.5-12.4.5-17.5,2.7-7.6,5.4-2.4,6.1,3.5-.9,37.7-.6,75.5-1.7,113.2,0,30.4,0,6.9-.8,35.4l-8.1,1.8c-1,.2-1.8-.7-2.6,0-1.1,1-14.6,2.2-11.4,1.7s0,0,0,0c-12.8-.6-10.3-7.7-9.9-21.9.7-24.9-.3-12.4,0-21.1,1.5-60,6.8-75.6,10.3-135.6,5.2-2.5,14.2,9.9,16.1,14.7h-.1Z"/>
  <path class="st3" d="M327.5,52c8.4-4.2,16.6,3.7,21,10.1,17.5,25.2,28.1,87.6,15.9,116.7-12.4,29.5-30.7,4.6-38.7-13.1-7.4-16.4-10.7-35.2-11.9-53.1-.9-13.5,0-53.6,13.7-60.6Z"/>
  <path class="st2" d="M294.5,173.2c2.6,5.4,9.7,15.1,13.7,20,4.7,5.9,10.7,9.7,14.9,15.6-7.6,3-58.4,17.9-62,14.9s.7-4.9-.1-7.7c-3.6-11.5-20.6-15.6-29.5-6s-3.4,16-6.7,16.5c-10.4,1.7-22.4-1.7-29.6-9.4.6-1.2.4-2.4-.9-3.2-11.5-1.6-14.6-10-20.6-18.7,41.5,2,83.7-.9,120.7-22h.1Z"/>
  <path class="st5" d="M312.6,66c-6,18.7-2.6,51.6,1.6,70.7,1.4,8.2,3,16.6,4.9,24.9-.5,1.5-20.6,15.2-22.1,7.5-9.4-20.2-22.5-85.8-9.1-105.1,6.2-3.2,21.1-4.7,24.9,2h-.1Z"/>
  <path class="st19" d="M168.4,71.7c5.9-7.2,14.4-10.2,23.2-13.2,32.1-10.9,66.9-16.7,100.6-16.5,1.2.7-5.9,16.2-6.5,16.9-1.2,1.2-4,1.2-4.2,1.6s2.2,1.1,1.2,4.9c-37.7,1.6-77.7,7.4-114.5,16.9-1.5.4-3.1.2-4.4-.6,4.1-2.7,9.6-3.5,14.6-3.9,5.5-3.4,4.2-3.6-3.6-.7-10.1,5.5-18.5,5.9-6.6-5.1h.1Z"/>
  <path class="st5" d="M156.9,87c-3.1,8.2-5.2,16.7-6.7,25.5-1.5,8.7,1.5,17.4-5.9,17.9l5.2.4c-.4,8.5,2.5,9.1-7.5,10.7l8.5-.5c1.2,15.9,7.2,37.4,15.5,51.4,4,8.1-15,4.6-19.1,0-21.1-31.2-25.4-66.1-5.7-99.1,4-5,7.9-7.9,11.6-8.4,4-.5,5.4.2,4.1,2.4v-.2Z"/>
  <path class="st3" d="M253.9,293.4c-1.9-2.5-2.7-5.4-6.1-3.5-.5-3.9-1.1-6.5-2.1-8.1-7.2-2.6-10.7-10-16.1-14.7.6-10.5-.6-41.9,3.4-49.4s15.9-10.6,21-5.7c2.4,2.4,3.2,8.2,3.5,11.7,1.9,18.9-3,49.5-3.4,69.9h-.1Z"/>
  <path class="st20" d="M314.2,136.7c4.5,20.4,11.4,52.2,33.4,59.6-.6,3.4-17.9,11-20.7,10.1-9.4-3-25.7-28.2-29.9-37.2,3.4,1.7,20.6-10,21.1-11.1,1.4-2.7-6.9-16.6-3.7-21.4h-.1Z"/>
  <path class="st25" d="M287.8,64c1.7-2.5,3.1-2.7,6-3.4l-5.5-1.1c.1-.9,8.6-15.9,9.4-16.4,2.4-1.9,24.1,1.5,28.5,2.7-4.5,5.6-11.5,13.2-13.6,20.1l-24.9-2h.1Z"/>
  <path class="st3" d="M166,192.1c4,6.7,12.1,14.6,17.6,20.5l-2.6,3.2c6.6-2.4,9.9,5.1,15.7,7.1.6,1.1-1.2,1.5-2.1,1.4-22.6-1-36.1-15.1-47.7-32.2l18.7,1.7.4-1.6h0Z"/>
  <path class="st11" d="M166.8,72.1c-3.4,9.7-8,14-14,12.4-3.6,2.7-6.5,6.9-11.6,8.4,5.5-9.2,14.4-20.6,25.6-20.7Z"/>
  <path class="st14" d="M168.4,71.7c-1.4,1.6-3.7,6-4.7,8.2,3.6-1.2,7.7-1.6,11.4-3,2.5-1,3.7-.7,3.6.7-4.7,1.5-9.7,2.5-14.6,3.9-.5.1-4.7,5.7-5.1,6.6-.6-.5-1.4-.7-2-1.1-1.4-.7-2.7-1.5-4.1-2.4.9-.7,3.9-.6,6.1-2.5s3.7-8.1,7.9-9.9l1.6-.4v-.2Z"/>
  <path class="st16" d="M194.4,213.9c5.2.7,10.4,0,15.6.1l-14.7,3.1c-.6-.6-2.5,0-.9-3.2Z"/>
  <path class="st9" d="M236,175.1c0,.9-.9,1.7-2.7,2.5-10.1,1.2-20.5.5-30.5,3-1.9-.6-1.5-1.4,1.1-2,10.5-1,21.4-3.7,32.1-3.4h0Z"/>
  <path class="st4" d="M236,175.1c6-2,14.2-3.4,20.6-3.7,2.5-.1,5-1.4,6.5,1.6-10.1.5-20,3.4-30,4.6,0-1.6,1.5-2,2.7-2.5h.1Z"/>
  <path class="st13" d="M223.8,77.7c1.5,0,1.6.6.4,1.6-8.9,2-17.6,3.6-26.6,4.5-.4-1.2,17.7-5.9,20.2-6.4s5.6.4,6,.2Z"/>
  <path class="st15" d="M272.6,175.7c1,2.9-5,3.1-6.9,3.5s-10,1.9-11.4-.4l18.2-3.1Z"/>
  <path class="st12" d="M280.6,69.4l-20.2,2c6.1-1.7,14-3.7,20.2-2Z"/>
  <path class="st23" d="M203.9,178.5l-1.1,2-17.5-.5c5.7-2.6,13-1,18.6-1.5h0Z"/>
  <path class="st18" d="M223.8,77.7c7-1.5,14-4.7,21.2-4.9.4,1.4-18.2,5.9-20.9,6.5,0,0-.4-1.6-.4-1.6Z"/>
  <path class="st7" d="M199.5,129.4c.9,2.7-6.9,3.9-8.5,4-2.5.4-5,1-6.5-1.7l15-2.2Z"/>
  <path class="st0" d="M247.8,289.9c-.4,5.7-.1,11.7-.5,17.5,0,1.5-.6,1.6-1.6.4.4-8.5-.4-17.5,0-26s2.4-14.5,2.5-21.1-1.7-15.1-1.6-22.9,0-9.9,2.6-8.1c-2,9.6,2.1,17.2,2.7,26.2s-3.4,24-4,34h-.1Z"/>
  <path class="st17" d="M247.2,411.1l-6.6-19.5c3.4-15.1,1.6-30.6,3.4-46,.2-1.9-.9-5,1.6-5.2,0,12.5.2,25.1.1,37.7,0,5-2.6,15.1-2.2,17.9.6,4.4,5.6,8.9,3.7,15.1Z"/>
  <path class="st1" d="M247.1,307.4c-.5,7.6-1.4,15.4-1.6,23-4.1,1,0-21.1,0-22.6l1.6-.4Z"/>
  <path class="st10" d="M353.1,126.4c-5.1,9.7,2.2,8.2,2.4,8.9.2,1-.9,6.5-3.7,5.4s1.5-9.2-6.4-4.4c1.9-4.1,2.4-9,7.7-9.9h0Z"/>
  <path class="st6" d="M334.7,77.5c-2.6,5.5-5.5,13.9-11.1,16.9,2.6-5.5,5.5-13.9,11.1-16.9Z"/>
  <path class="st24" d="M175,76.9c2.2-.9,6.4-5.2,10.9-4.6l.9,3.2c-2.6.9-5.4,1.4-8.1,2.1l-3.6-.7Z"/>
</svg>