<?xml version="1.0" encoding="UTF-8"?>
<svg id="Layer_1" xmlns="http://www.w3.org/2000/svg" version="1.1" viewBox="0 0 500 500">
  <!-- Generator: Adobe Illustrator 29.1.0, SVG Export Plug-In . SVG Version: 2.1.0 Build 142)  -->
  <defs>
    <style>
      .st0 {
        fill: #7b7657;
      }

      .st1 {
        fill: #6d694e;
      }

      .st2 {
        fill: #24221e;
      }

      .st3 {
        fill: #232a23;
      }

      .st4 {
        fill: #787456;
      }

      .st5 {
        fill: #8b8069;
      }

      .st6 {
        fill: #2b2f28;
      }

      .st7 {
        fill: #47686a;
      }

      .st8 {
        fill: #2f382f;
      }

      .st9 {
        fill: #151412;
      }

      .st10 {
        fill: #1f1e1b;
      }

      .st11 {
        fill: #706b50;
      }

      .st12 {
        fill: #3d453b;
      }

      .st13 {
        fill: #898561;
      }

      .st14 {
        fill: #626055;
      }

      .st15 {
        fill: #1c1b19;
      }

      .st16 {
        fill: #636045;
      }

      .st17 {
        fill: #2b3028;
      }

      .st18 {
        fill: #324036;
      }

      .st19 {
        fill: #8b8662;
      }

      .st20 {
        fill: #394035;
      }

      .st21 {
        fill: #4d5443;
      }

      .st22 {
        fill: #3c453b;
      }

      .st23 {
        fill: #83805f;
      }

      .st24 {
        fill: #3f473c;
      }

      .st25 {
        fill: #555f4f;
      }

      .st26 {
        fill: #3d3b31;
      }

      .st27 {
        fill: #7a7757;
      }

      .st28 {
        fill: #c4c191;
      }

      .st29 {
        fill: #252b23;
      }

      .st30 {
        fill: #302e29;
      }

      .st31 {
        fill: #636046;
      }

      .st32 {
        fill: #3b443b;
      }

      .st33 {
        fill: #171614;
      }

      .st34 {
        fill: #827d5b;
      }

      .st35 {
        fill: #384239;
      }

      .st36 {
        fill: #796f5c;
      }

      .st37 {
        fill: #384139;
      }

      .st38 {
        fill: #394239;
      }

      .st39 {
        fill: #3d463c;
      }

      .st40 {
        fill: #85815e;
      }

      .st41 {
        fill: #fffe00;
      }

      .st42 {
        fill: #3b443a;
      }

      .st43 {
        fill: #b8b587;
      }

      .st44 {
        fill: #3b4b3f;
      }

      .st45 {
        fill: #1b1a18;
      }

      .st46 {
        fill: #393f35;
      }

      .st47 {
        fill: #dbd9c0;
      }

      .st48 {
        fill: #666348;
      }

      .st49 {
        fill: #39433a;
      }

      .st50 {
        fill: #625f54;
      }

      .st51 {
        fill: #374139;
      }

      .st52 {
        fill: #767253;
      }

      .st53 {
        fill: #888562;
      }

      .st54 {
        fill: #504d3a;
      }

      .st55 {
        fill: #878461;
      }

      .st56 {
        fill: #b9b688;
      }

      .st57 {
        fill: #252a23;
      }

      .st58 {
        fill: #8b8661;
      }

      .st59 {
        fill: #8a8561;
      }

      .st60 {
        fill: #292f27;
      }

      .st61 {
        fill: #2a2f2b;
      }

      .st62 {
        fill: #3a443b;
      }

      .st63 {
        fill: #757253;
      }

      .st64 {
        fill: #38473c;
      }

      .st65 {
        fill: #716d50;
      }

      .st66 {
        fill: #8a8662;
      }

      .st67 {
        fill: #363d33;
      }

      .st68 {
        fill: #39423a;
      }

      .st69 {
        fill: #282d25;
      }

      .st70 {
        fill: #3a433a;
      }

      .st71 {
        fill: #898460;
      }

      .st72 {
        fill: #1d1c19;
      }

      .st73 {
        fill: #6e6e52;
      }

      .st74 {
        fill: #767254;
      }

      .st75 {
        fill: #3c595a;
      }

      .st76 {
        fill: #282e26;
      }

      .st77 {
        fill: #777353;
      }

      .st78 {
        fill: #272c25;
      }

      .st79 {
        fill: #656247;
      }

      .st80 {
        fill: #848160;
      }

      .st81 {
        fill: #4a4840;
      }

      .st82 {
        fill: #c3c091;
      }

      .st83 {
        fill: #727154;
      }

      .st84 {
        fill: #67634a;
      }

      .st85 {
        fill: #9e9b73;
      }

      .st86 {
        fill: #767252;
      }

      .st87 {
        fill: #807b5a;
      }

      .st88 {
        fill: #2b362e;
      }

      .st89 {
        fill: #646147;
      }

      .st90 {
        fill: #b1ab7c;
      }
    </style>
  </defs>
  <g>
    <path class="st45" d="M333.6,346.9l19.6,44.5c-3.9,1.7-1,3.9-.8,7.6s-1,4.8-1.2,6.7c-.4,6.2,1.6,7.2-2.7,13.4-6.1,8.6-12.9,9.5-22.4,12.2.8,5.2,0,12.3.8,17.1s1.9,3.2,2.4,5.1c.6,2.2,2.3,9.4.5,10.8s-10.7,2.9-12.6,3.2c-13.8,2.1-27.6.2-41.4-.6-1.3-8.9-2.6-17.9-2.3-27-1.7.2-4-.3-5.6,0s-2,9-2,10.2c0,2.9,1.7,4.3,2.2,6.8s1.5,8.8.1,9.7-13.6,2.4-15.4,2.6c-14,1-28.6-.6-42.3-3-.2-9.3,0-18.6,1.5-27.7-23.5-2-46.5-21.1-34.5-46.5l-3.8-1.2c5.8-12.7,10-26.6,16.6-38.9,3.3-6,8.2-9.6,8.1-17.2-9.9-5.8-19.6-11.6-28.4-18.9-1.3-1.1-3.4-4-4.5-4.5-4.2-1.9-8.6.8-15.7-3.8-13.5-8.8-28.5-34.8-31.2-50.5-.9-5-1.9-22.8,1.5-26.3s5.8,1.8,8.6.8c-9-66.2,17.6-130.2,84.9-150.2,73.6-21.8,165,4.3,177.4,89.2,5.4,36.8-4.9,58.3-9.5,92.2s.3,34.3-6,50.3-26,27.9-42.1,34Z"/>
    <path class="st19" d="M290.1,88.9c9.8.7,20.9,4.5,30,8.2,30.4,20.5,50.5,49.7,53.7,87.1.5,6.1,1.4,29.7-.9,33.6s-.7,1-1.1,1.5c-9.2-4.4-18.3,5.2-25.1,10.5-6.6,5.1-12.7,10.9-19.2,16.1-16.9-4.9-20.6,7.2-13.9,20.6,3.1,6.2,6.7,5.5,8.5,7.6s-.4,1.1-.2,1.4c1.1,1.4,17.8,6.3,20.7,7s7.9,1.3,11.9,2c-3.1-4.2-8.7-7.1-13.5-9l21.4-13.5v-1.5c-2.8,1-5.9.9-8.6,1.5-1.4.3-1.9,0-1.5-.8,1.3-.8,8.3-5.1,8.8-5.2,1.8-.3,7.4,11.1,7.7,13.1.8,4.8-.4,9.8-.7,14.6-1.1,8.7-5.6,16.2-10.7,23.1-12.7,17.5-33.4,32.1-55.3,33.9-1.2.7-2.7,1.2-4.5,1.5-12.3.8-24.7.3-36.7-2.2-7.9-1.5-16-2.9-23.6-5.6-28.5-9.9-29-25.7-22.3-51.3l1.4-15.3,1.8-1.2c.7-.9,1.6-.9,2.7,0,.6-3.8,2.3-5.7,5.1-5.9,12.7,5.6,25.9,10.2,39.6,13.8,4.6,2.1-.3,5.3-3.5,6.8l-7.6,3.7c-.2,1.8,33.1-8.5,35-9.2,5.7-2.1,8.3-3.5,11.4-9,1.1-2,5.5-16.2,4.4-17.3s-9.5-3.8-11.4-2.8c-2.9,1.9-5.8,2.6-8.8,2.3-18-13-36.6-24.5-56-34.4-3.7-.2-5.4-1.4-5.1-3.7-3-8-1.1-8.7,5.9-10.2s-2.3,1-4-2,1.1-8.5,1.5-8.8c3.2-2.5,5.2,3,5,2.7-1-2.2-2-4.3-3.2-6.4-.6-1.5,0-2.6,1.5-3.2,3.2,0,5.6-1.2,7-3.5.5-.8,1.1-1.4,1.9-.9-3.6-7.5-2-9.3,5.6-10.4-7.8-.3,2.2-16.4,4.7-6.5-2.2-7.2-2.8-10.2,5.7-10.7-7.1,1.2-4.3-12.8,1.2-8.9-2.2-2.7-3.4-5.4-3.6-8.1,6.8-2.7,7.6-3.3,2.4-1.9-3.4.3-1.7-10.4-.8-10.9,2.2-1.4,4.1.2,2.4,2.1,10.5,11,17.2-7.3,1.5-3.8-2.6,2.5-6.1-2.3-3.9-5.2,5-3.4,5.2-4.1.7-2.1-2.7-4.1-3.6-12.7,3.5-8.7-6.8-4-7.3-6.9-1.8-8.8-.8-2.1.7-3.1,2.2-1.5,0-.4,0-.8,0-1.1.8-3.4,26.1-4.8,30.7-3.4Z"/>
    <path class="st18" d="M242.8,88.2c3.7-.3,2.5,3.9-1,3.8,4.3,2.6,5.4,4.9,3.2,6.7,2.8,1.6-.5,4.8-2.2,2.2-1.4.9-2.8,1.9-3.5,3.5-33.4,19.3-55.6,62.7-41.4,99.8l-.8,1.6c-.7,1.4-.1,3.2,1.8,5.5,0,2.9-11.3,6.8-11.5,2.2-1,5.1-5.4,4-9.2,2.6,2,4.6-6,9.8-7.2,3.1,2.1,9.4-.4,10.8-9,8.8,7.5.6,7.2,6.4.7,7.1-.5-1.4-6.4-11.1-7.5-11.7-2.1-1.1-3.7,1.4-5.6,1.6s-8.4-.5-8.7-.7c-1.8-1.3-1.6-22.8-1.4-26.3,3.7-64.1,41.1-101.5,103.5-109.9Z"/>
    <path class="st77" d="M197.1,223.2c-.6-3.5,6.2-5.9,5.7-1,.3-.5.9-.7,1.8-.5,2.4-1.1,4.5,4.4,3.8,6.8l1.1,1.6c-3.7,13.1-3.4,26.7,8.8,34.7v1.9c-1.4,5-1,10.9-1.7,16-2.1,16.1-9.6,28.7,5,41.7,9.3,8.3,27.2,13.2,39.4,15.8-26.1-3.1-53.8-12.4-75.2-27.9-2-1.5-10.1-7.3-10.2-9.2s2.5-5.3,1.5-7.9l-4.6,6.3c-11.5,10.3-22-5.5-27.7-14.2-8.4-12.8-17.3-30.7-15.6-46.4.6-5.5,1.2-3.2,3.4-5.2s2.3-9.4,9.6-5l10.8-.4c3.9,3.5,7.2,7.6,10.5,11.6,2.5.3,4.9-.8,7.4-3.3,1-.3,1.7,0,2.4.7-.1-6.9,1.7-8.4,8.3-7.4-9-.9-.2-8.4,1.8-8s2.7,2.4,3.2,3.5c1,2-1.4,3.5,0,1.3s.8-1.1,1.6-1.2c.5-1.2,1.6-1.8,3.4-1.8l5.6-2c-.6-.2-.6-.5,0-.8Z"/>
    <path class="st19" d="M289.3,355.2c7.1,2.4,13.6,3.8,21,1.2l1.5,1.1c2.4,1.1,3.4,8.6.8,9.8-4.4,0-5.4.9-3,3-.4,2.7-6.8,3.1-9.4,3.2s-6.8,0-9.9-1.7c5.2,6,14.8,5.1,21.6,2.6l1.4,1c1.3,5.7-2.8,6.7-7.7,6.8,1.9,2,4.6,2.5,6.9.8l1.6.6,1.5.9c-.2,2.3,0,4.5.7,6.6-8.3,2.2-16.9,3.7-25.5,4.5l-1.9-15c-.5,0-2.3,6.2-2.4,7.3-.3,2.4.6,6.7.5,7.2-.3,1.2-8.1,1.9-10,2-10.2.6-24.3.6-34.5,0s-8.7-.8-9.4-1.1c-1.6-.8-1.6-2.7-1.5-4.1l.8-.7c4.2,1.9,6.7,1.6,7.4-1.1l1.6-.5c4.3-.1,6.9-5,5.3-9,1.1-1.5,13.9,1.5,16.8,1.5,9.8-.1,21.7-4.5,22.8-15.6s-.2-5.6-2.1-6.9c0,5-2.9,10.9-7.2,13.4s-2.3.5-3.3.8c-.5-.2-.5-.5,0-.8-1.1-2.3-3.8-2.1-3.8.8.8.5.5,1-.8,1.5-2.1.3-4.8.1-7.1.8l-4.5-1.5c5.1-3.2,10.2-6.3,15.2-9.6,5.8-3.9,9.8-8.8,16.7-9.9Z"/>
    <path class="st56" d="M320.1,97.2c55.2,22.5,65.5,68.9,57.8,123.8-.4,2.1-1,3.9-2.2,1.5-.6-.5-3.3-2.8-3.8-3,1.8-23.7,2.1-45.3-7.1-67.5-9.8-23.5-24.8-38.5-44.9-53.4s-2.2-1.5.3-1.4Z"/>
    <path class="st3" d="M316.3,411.4l1.5,1.6c-.2,3.5.2,7,.7,10.4-23.7,7.7-50.6,8.5-75.4,6.8-1.9-.1-3.7-.8-5.6-.8v-12c18,1,36.3,1.5,54.3-.9,8.4-1.1,16.3-3.3,24.5-5.1Z"/>
    <path class="st20" d="M317.1,397.2c3.7,4.3-.6,7.2-3.8,9-8.8,2.2-17.9,4.2-27,5.2-1.4-1.2-2.4-1.2-3,0-5.1.5-10.3.7-15.4,1.5-11.4.1-22.9-.5-34.1-2.2,1.4-2.8.6-6,.8-9,27.4,3.6,55.4.7,82.5-4.5Z"/>
    <path class="st52" d="M207.6,418.9l-2.3-1.1c-.1,2.2,5.3,10.5,4.5,11.6-12.3-3.4-27.8-10.7-26.2-25.8s1-7.7,4.6-7.1c4.3.7,7.3,5,8.5,5.1s2.6-1.1,3.7-1.2c1.9-.1,7.1,1.7,9.8,1.9s11.5-.7,14.1.1c2.3.8.9,4.2.5,5.9-1.4.9-6.1-3.4-7.9-3.8-.3,1.1,1.2,2.9,1.9,3.8-.3,1.6-.5,2.3-2.2,1.5-1.6-.8-3.1-1.6-4.5-2.2l-1,1.6c-2,1-2.8,3.9-2.1,8.7l-1.4,1Z"/>
    <path class="st33" d="M197.1,205.9c1.8-.7,2.2-.3,1.5,1.5,2.4,3.2,4.5,6.6,6.2,10.3l-.2,2.5c2,.3,1.8.7,0,1.5-.8,1.8-1.3,5-3.8,3.4l.8-4.9-4.5,3-1.6-.4c-1.7-5.5-9.8-6-10.7.3,1.8.6,2.8,2.2,3.2,4.7-.2,1.1.2,2.6,0,3.8-4.7,1-2.6-2.4-3-6-1.6-1-7.3,4.1-6.7,4.5,2-.1,5-.4,4.5,2.6-1.8,2.8-5.4-.7-7.1,1.1s.5,14.1-4.1,6c-2.3,1.7-4.4,4.2-7.5,4.5-.1-.7-.3-1.7-.8-2.2-.5-1.8-.3-5.3-.8-6.8.9-2,3.4-2.1,3.8-4.5-3.1-1.1-7.1-.3-6-4.5l8.9,1.4c1.8-3.3,0-6.3,0-9.7,4-.7,2.6,1.1,4.1,3.7,7.5-5.4,2.3-4.1,1.9-5.6-1-4.3,7.1,1.2,9.3-.4,3.4-2.5-1.8-9.7,4.2-8.2v7.5s9-3,9-3c1.2-1.6-8.3-5.2-.7-6Z"/>
    <path class="st7" d="M221.8,352.9c-.3,1.7-1.9,2.7-4.9,3.2-1.1,4.2.8,4.6,5.6,1.3.5,2.9.6,4.4.8,7.5-2.7,3.1-2.7,5.4,0,6.8,0,6.7-.4,13.5-.8,20.2l-2.1-.6-3.5-8.4c-5.3.8-5.8,3.8-1.7,9l-1,1.4c-2.3,0-4.5-.4-6.8-.8l-1.6-.9c0-2.2-1.7-2.4-5.1-.6-.5-.1-1-.6-1.5-.8-2.7-.8-.4-4.7,1.5-6-.7-1.9-.4-2.2,1.5-1.5-.5-.8-.2-2,.8-2.2-2.3,0-2.5-.8-.8-2.2-2.6-.8.6-8.9,3-9-.6-.2-.6-.5,0-.8,1.6-1.5,3.3-3,5-4.3-.6-2-1-4.1-1.3-6.2-2-1.5,1.3-8.4,3.8-7.5-.4-2,0-2.1,1.5-.8-.2-2.1,2.1-2.1,3.8-1.5,1.9,1.4,2.9,2.2,3.8,4.5Z"/>
    <path class="st56" d="M304.3,341.7c-1.2.1-2-.1-2.2-.8,30.8-6.9,55-27.3,66-57-1,16.4-1,26.5-14.2,37.9s-32.2,17.8-49.5,19.9Z"/>
    <path class="st81" d="M320.8,259.2l1.5-.6c1.9,1.9,5.8,0,7.8-1.2l26.7-18.8c6-3.9,11.7-6.8,15,1.9,0,.2.7.8.8,1.8.4,4-.3,8.4,0,12.4-4.7-4.9-6.1-11.2-14-7.6s-20.7,13.5-31.6,18c-4.3,1.1-5.1-2.7-6.2-5.9Z"/>
    <path class="st75" d="M211.3,346.2c2.6.4,2,2.8,1.5,4.5-.8.8-3.1,6-3.8,7.5v.8c-1.4,2.1-3.1,3-5.4,3.8.6,2.4,1.2,4.6,1.6,6.7-.7,2.1-2.9,7.3-3,9l-.8,1.3c-4.8-.2-7.2,5.5-2.1,3.7l1.5.9-1.5,6c-2.6-.7-4.9-1.3-7.5-2.2-1.2-1.7-2.7-2.2-4.5-1.5-.8-.4-1.5-.6-1.4-1.7.3-2.5,4-8.4,5.1-11,1-1,1.6-.8,2.2.4,5.5-1.7,5-5,1.6-8.7,1.6-3.5,2.2-5.9,4.5-9.8l6.8-3.5c-1.1-1.6-1.3-2.9-.8-4,2.4-1.7,2.8-2.2,6-2.2Z"/>
    <path class="st50" d="M371.8,240.4l-4.7-4c-3.4-1.4-9.4,3.4-12.3,5.3-7.9,5.2-15.1,11.8-23.4,16.3s-7,4.8-10.5,1.1c-.3-1-2.2-5-.4-5.3,3.1.7,5.8,4.2,9.2,2.4,7.5-5.6,14.3-12.3,21.6-18.2s11-9.3,13.8-10.2c5-1.6,6.3,9.2,6.8,12.5Z"/>
    <path class="st67" d="M284.1,457.9c-.2-.2-.4-5-.8-6l34.5-2.3c-.5,3,1,5.1,3,7.1,0,1.3-12,2.6-13.8,2.7-2.7.1-22.1-.7-22.9-1.6Z"/>
    <path class="st58" d="M326.8,354.4c1.4,1.6,2.2,2.8,3.1,4.7,4.8,9.3,7.7,19.7,11.9,29.3l-9.8,5c0-.8.1-1.8-.2-2.4-3.7-7.6-4.5-24.8-5.8-34.3-.4-1.6-.2-2.4.8-2.2Z"/>
    <path class="st86" d="M232.3,356.7c-.6-3.6-1.9-7.3-3.7-10.5l29.2,6c.3,1.4-.5,1.5-1.2,2.1-3.2,2.7-9.2,5.5-13,7.6l-1.9.6c-2.4-2.5-4.9-4.9-7.6-7.1l-1.8,1.2Z"/>
    <path class="st58" d="M212.1,407.7c1,.4,1.5,1.2,1.3,2.6,1.3-1,2.3-1.1,3.2-.3.7-.6.7-1.9,2.2-1.5,2.7,3.5,7.2,5.9,6,11.3-1.9,1.9-10.2-5.7-12.7-4.9.3,2.9,9.7,9.8,9.7,10.5s-2.7,2.7-4,2.6c-1.9-.1-9.8-7.5-10.2-9s0-8.5.9-10,2.2-.9,3.6-1.2Z"/>
    <path class="st20" d="M237.6,378.4c-1.8,1.4-3.9-2.3-2.2-3.8,10.3-7.4,23.3-12.7,33.4-20.9l3.4,3.2c-10.4,8.6-22.7,15-34.5,21.4Z"/>
    <path class="st20" d="M235.3,452.7c7.2.3,14.6.2,21.7-.8-.2,2.4.9,4.5,2.2,6.4-.5.8-1,.9-1.9,1.1-6.2,1.2-14.9,1-21.4.8-2.4-.2-2.9-6.6-.8-7.5Z"/>
    <path class="st86" d="M290.1,88.9c-7.3-.5-24,1.6-30.8,4.5-.9,0-1.6-.3-1.8-1.2-3.8,5.4-7.7-.5-5-4-.4-2.3,1.1-1.4,2.6-1.5,6-.2,12.1.2,18.1,0l16.8,2.3Z"/>
    <path class="st33" d="M242.8,88.2c2.7-.4,8.2-3.2,9.8,0s.9,5.3,1.9,5.2,3.9-7.2,4.9,0c-.6.3-1.6,1-2.2,1.5-3.3,2.4-6.5,3.9-10.6,4.9l-1.4-1.1c.7-4.3-6.5-4.8-4.9-8.3,2.2-.3,4.7,1,2.6-2.2Z"/>
    <path class="st46" d="M293.8,438.4c7.8-1.1,15.4-3.5,23.2-4.5-.9,1.6,1,6.5.8,6.7-1,1-9.9.7-12,.8l-10.5.8c-.5,0-1,0-1.5,0-2.2,0-2.1-3.3,0-3.8Z"/>
    <path class="st17" d="M235.3,452.7l.8,7.5c-5.6-.2-10.9-1.3-16.5-1.5v-7.5c5.2.4,10.5,1.3,15.8,1.5Z"/>
    <path class="st28" d="M318.6,367.9c1.1,7.3,1.8,14.7,2.3,22-.3,1.3-3.6,1-4.5,1.2-3.1.3-2.1-5.1-2.2-7.5-.7-.1-.6-.4,0-.8,1.3-3,1.3-5,0-6-.6-.6-.6-1.7,0-2.2-.6-2.2,2.1-6.6,4.5-6.8Z"/>
    <path class="st8" d="M316.3,411.4c2.5-.6,5-1.1,7.5-1.5.1,3.1,2.8,8.5,1.1,11.3s-4.8,1.7-6.4,2.2c-2,.7-2.1-4-2.2-5-.2-2.3,0-4.7,0-7Z"/>
    <path class="st66" d="M214.3,393.4c-.7-1.8-4-7-3.7-8.5s5.7-4,6.3-4.2c1.4-.5,1,.5,1.2,1,1.5,3.4,2.5,7,4.4,10.2,0,.5,0,1,0,1.5-2.7,0-5.5.1-8.3,0Z"/>
    <path class="st46" d="M235.3,438.4c7.7.7,15.5,1.4,23.2,1.5.3.3-.5,2.8-1.3,3-5.1,1.2-14.3.9-19.7.7-3.9,0-5.6-3.3-2.2-5.2Z"/>
    <path class="st86" d="M312.6,352.9c1.8,1.2.7,2.7-.8,3.8.7.1.6.4,0,.8-7.1,2.4-16.7,3.4-22.5-2.2,6.7-1.1,16.4-1.8,23.2-2.2Z"/>
    <path class="st59" d="M232.3,356.7c.8-8.1,8.2,4,11.2,5.2-1.7,1-4.2,3.7-6.3,3.8l-1.9-3.8c-.1,2.2,1,6-2.3,6,0-3.7-.1-7.6-.8-11.2Z"/>
    <path class="st25" d="M317.1,397.2c1.4-.3,7.7-1.9,8.2-1.5.2,1.5,1.5,6.5.7,7.4s-10.9,2.6-12.7,3.1c-3.8,0,1.6-2,2.2-2.7,2.4-2.6.5-3.6,1.6-6.3Z"/>
    <path class="st6" d="M235.3,438.4c0,3-1,4.3,2.2,5.2-2.2,0-15.9-.9-16.5-1.5s.2-4.2,0-5.2c4.8,0,9.5,1.1,14.3,1.5Z"/>
    <path class="st82" d="M316.3,355.9c.8,2.9,1,6.1,1.5,9,.3,3.1-2.3,6.1-5.2,4.5-.2.7-.5.7-.8,0-1.6-1.2-1.1-1.8.8-2.2.3-3.5-.5-6.4-.8-9.8s0-.5,0-.8c.8-2.7,3.3-3.8,4.5-.8Z"/>
    <path class="st63" d="M194.8,365.7c1.3-.6,1.5-1.6,2.4.2s2.2,5.6,1.8,6.5-4.8,3.3-5.6,3.5c-1.2.3-1.5-1.5-2.3-2,1.2-2.9,2.4-5.4,3.8-8.2Z"/>
    <path class="st13" d="M221.8,352.9c.6,1.6.5,3,.8,4.5.4,1.9-5.5,5-6,4.5-2.6-7.5-1.9-6.7,5.2-9Z"/>
    <path class="st40" d="M343.3,398.7c1.9,5-7.8,8.3-10.4,6.7s-1.1-1.8,0-2.5,10.1-4.6,10.5-4.1Z"/>
    <path class="st63" d="M205.3,348.4c4.5,4.7,1.7,5.5-2.7,7.4-1,.4-2.6,1.6-3.3,0,2.1-3.5,2.1-4.8,6-7.5Z"/>
    <path class="st35" d="M237.6,388.9c1.2,0,2.4.8,3.8.8-.5,6-6.1,4.6-9.8,2.2.1-2,.4-2.8,2.2-3.8,1.2.2,2.4.5,3.8.8Z"/>
    <path class="st17" d="M293.8,438.4v3.8c-1.4,0-11.2.3-11.3-.4s0-2.5,0-2.6c.4-.4,9.3-.5,11.3-.8Z"/>
    <path class="st30" d="M318.6,367.9c-.2,2.1-4.2,5.9-4.5,6.8-.2.7-.5.6-.8,0-2-1-2-3.7-.8-5.2,2.4-1.3,3.6-2,5.2-4.5.2,1,.6,2,.8,3Z"/>
    <path class="st69" d="M237.6,378.4c-.8.4-4.4,3.9-5.2,3-.5-5.1-.2-4.5,3-6.7l2.2,3.8Z"/>
    <path class="st53" d="M223.3,371.7c-5,1.6-4.7-6.2,0-6.8,0,2.2,0,4.5,0,6.8Z"/>
    <path class="st23" d="M200.8,391.2c.3-1.2,4.5-4.3,5.2-3.7l1.5,5.2c-2-.3-4.7-1-6.8-1.5Z"/>
    <path class="st0" d="M340.3,414.4c-.5,1.2-4.8,5.7-6,4.5-1.1-4.9,2-4.3,6-4.5Z"/>
    <path class="st90" d="M312.6,352.9c.9,0,2-.2,2.9.1.5.9.6,1.9.9,2.9-1.7-1.5-2.8.5-4.5.8,0-1.3,0-2.6.8-3.8Z"/>
    <path class="st83" d="M215.1,346.9c.6.7.3,1.7-.8,3-.5.3-1.4.7-1.5.8l-1.5-4.5c2.1,0,2.1.2,3.8.8Z"/>
    <path class="st61" d="M243.2,383c3.9,0-4.4,6.5-4.1,2.6s3.9-2.6,4.1-2.6Z"/>
    <path class="st73" d="M191.8,388.2c-1.3-.5-3.5-1-4.5-1.5,2.1-3.9,3.9-2,4.5,1.5Z"/>
    <path class="st80" d="M218.1,348.4c-1.2.6-2.6.8-3.8,1.5-1.5-.4-.2-2.4.8-3,1.6.5,1.6.5,3,1.5Z"/>
    <path class="st17" d="M305.8,441.4c-2.8,1.4-7.2.7-10.5.8,2.8-1.4,7.2-.7,10.5-.8Z"/>
    <path class="st85" d="M302.1,340.9l2.2.8c-2.3.3-4.2.6-6.8.8,1.1-1.1,3-1.2,4.5-1.5Z"/>
    <path class="st4" d="M377.8,220.9c-.2,1.2.1,2.5,0,3.7-2.1.6-1.8-1.8-2.2-2.2,1.2.3,1.7-.6,2.2-1.5Z"/>
    <path class="st76" d="M283.3,411.4c-2.3-2.4,3.7-2.8,3,0-1,.1-2,0-3,0Z"/>
    <path class="st27" d="M237.6,388.9c-.3,0-2.7,2.2-3.8-.8,1.9-.9,2.1-.5,3.8.8Z"/>
    <path class="st11" d="M273.6,373.9c-1.6.5-2.6,1.2-4.5,1.5.3-.3.6-1.4.8-1.5.3-2.1,2.5-2.1,3.8-.8v.8Z"/>
    <path class="st1" d="M353.8,262.2c-1.2.3-2.9,1.8-4.5,1.5.3-1.4,2-1.6,3-2.2l1.5.8Z"/>
    <path class="st74" d="M326.8,354.4l-.8,2.2c-.1-.7-1.4-2.3-.7-3.7.9,0,1.1,1,1.5,1.5Z"/>
    <path class="st45" d="M257.1,94.9c-.8.6-1.8,2-3,2.6.7,1.6,6.6,5.2,6.7,6,.7,3.2-4.9,1.2-6-.4l.7,8.2c1-.6,3.8-3.8,4.5-1.1s-4.4,4.7-4.5,5.4c-.7,3.1,1.7,2.9,3,4,6.6-.6,3.6,10.6-1.5,3.8-.3-.1-.9-1.9-1.5-1.5l-.8,9c10.6-3.8,7.2,3.2-.8,3.8-.4.4,4.9,6.9,4.5,8.6-.7,2.7-3.5-.5-4.5-1.1l-1.5,7.1,4.1.4c2.1,4.2-4.8,3-6.2,3.9-2.6,1.6,4.2,11.3-1.2,9.6s-1-3.4-2.6-3.7l-3.8,7.1,3.4.4c2.2,4.6-5.7,2.9-6.8,4.5s2.8,8.3,1.9,9c-1.3.5-3-.7-3.7-.7-1.3-1.1-2.9-.7-4.9,1.1,2.4-2.5,4-2.9,4.9-1.1.7,5.1-3.4,3.7-7.5,5.3.5,1.6,4.6,7.9,3.7,9s-1.9.6-2.3.4c-1.6-.7-1.5-3.7-3-4.2l-1.5,9.7c4-2.2,6.1,1.5,2.3,2.7s-5.7-1-5.4,4.4c.2,2.2,2.1,3.5.8,5.6,4.9-.1,9.7,2.9,14,5.1,16,8.4,31.1,20.6,46.6,30,3.6.9,6.5-2.9,10.2-2.8s9.5,2.8,10.5,3.6c2,1.5-2.7,16.4-4.2,19.1s-4.8,6.5-6.7,7.6c-3.5,2-20.3,6.4-25.3,7.7-5.3,1.4-12.4,3.5-17.8,3.9-.8,0-3.5.6-3.4-.7,5.8-3.3,12.9-5.6,18-9.8-8.5-1.9-16.9-4.6-25.1-7.5s-15-6.8-16.5-6.8-2.6,4.4-3.4,6c-1.5.3-2.6-.6-3.7-1.5-2-1.6-7.2-6.4-8.6-8.3-5.3-7.5-4-21.6-1.2-30-.6-2.2,0-4.4,1.7-6.6,1-3.1-3.6-2.6-5.4-1.7-2.4-3.8-5.1-8.3-6-12.8,1.1-.4,2.4-.3,4.1.2,1.7-7.2,6.1-10.4,13-9.6-2.3-4.8-2.2-8.2.3-10.1-3.2-.7-3.4-3.9-.7-5.5,6.8-.3,6.4-3.5,3.6-8.5l4-6.8c7.4-.1,9.3-.2,5.8-7.9,0-3.7,4.9-3.8,6.3-.7l2.1-2.8c-7.8-.8-5.5-7.3,1.8-6.4l2.7-.6c-1.6-3.1-2.2-6-1.6-8.8-3.2-.8-3.1-4.1-.3-5.6,2.4-.5,6.3-1.9,4.5-5.1-5.7-6.4-7-8.3,1.2-12.3l-1-1.7c-5.8-3.5-6.6-6.2-2.6-8-5.3-1.2-2.1-4.4,1.2-6.2.5-.4,2.4,0,2.2-2.2l12-3.8Z"/>
    <path class="st45" d="M304.3,287.7c-1.9-1.5,0-4.7,2.2-4.5.8-1.7.9-3.9,2.6-5.2,5.8,4.9,20.5,16.9,17.1,25.3s-7.8,3-11.6,4.1c-2.7.8-2.6,3.7-8.4,2.8-9.8-1.6-4.1-16.6-1.9-22.5Z"/>
    <path class="st72" d="M334.3,313.2l-11.2,1.5c1.1,2.4.3,4.7,2.2,6.7l-24,.8c-1.3-1.1,6.3-6.8,7.3-7.4,4-2.3,8.6-2.3,12-5.3l13.7,3.7Z"/>
    <path class="st37" d="M315.4,200.9c9.1-1.1,12.2,2.4,18.6,2.8s11.6-2.8,10.1,1.8-10.5,2.9-12.9,2.5c-8.3-1.4-12.2-2.2-21.2-2.1s-4.1,1.5-4.1-1.1,7.6-3.7,9.6-3.9Z"/>
    <path class="st51" d="M293.6,115.4c2,2.4.3,11.3-4.6,11.1-5.3-.2-5.7-5.2-4.9-9.4.7-3.7,7.5-4.2,9.5-1.7Z"/>
    <path class="st77" d="M234.4,318.6c9.6-2.2,11.1,9.2,3.5,10.3-8.7,1.3-10.3-8.8-3.5-10.3Z"/>
    <path class="st77" d="M304.9,164.8c11.4-2.7,11.4,12.4.6,10.3s-6-9.1-.6-10.3Z"/>
    <path class="st77" d="M346.6,203.2c4.7-5.8,16.5,2.5,8.4,8-5.8,3.9-12.6-2.8-8.4-8Z"/>
    <path class="st77" d="M257.1,123.4c4.8,2.5,5.1-.8,1.5-3.8,5.6-6.3,15.9,2.8,8.2,7.8s-9.1.7-9.7-4.1Z"/>
    <path class="st38" d="M306.6,283.2c-.7,1.4-1.8,3.2-2.2,4.5-.2-1-3.6-.1-3.8,0-.2.2,2.3,4.5-2.6,4.6-6.5-6.7,1.8-12.9,8.6-9.1Z"/>
    <path class="st68" d="M259.9,309.6c3-.5,9.3.6,6.6,4.4s-9.7,1.6-10.9.3c-2.7-2.7,2.4-4.4,4.3-4.7Z"/>
    <path class="st37" d="M295.3,176.7c.9,6.5-4.3,5.8-9,6v-6s9,0,9,0Z"/>
    <path class="st70" d="M340.8,137.8c4.4-1.4,9.4,4.9,6.3,7.1s-3.7-1.4-4.9-2.7-5.3-3.2-1.4-4.4Z"/>
    <path class="st77" d="M320.6,126.6c5.7-1.7,7.4,5,2.5,6.3-3.7,1-6.7-5-2.5-6.3Z"/>
    <path class="st70" d="M259.3,200.7c2.7,2.2-13.6,5.6-13.5,2.6s11.3-2.8,13.5-2.6Z"/>
    <path class="st62" d="M320.6,154.4c4.4-.4,4.5,6.7-.1,6.6s-3.9-6.2.1-6.6Z"/>
    <path class="st68" d="M289.2,324.6c2.1,2.1-1,5.9-4.3,3.1-5.1-4.2.6-6.8,4.3-3.1Z"/>
    <path class="st77" d="M305.3,106.4c1.8-1.8,6.2,0,4.7,2.8s-7.7.2-4.7-2.8Z"/>
    <path class="st22" d="M287.8,205.9c.4,4.7-5.1,3.7-8.2,4.5-1.4-1.3,6.8-5.8,8.2-4.5Z"/>
    <path class="st77" d="M305,146c3.1,1.9-2.7,7.2-4.8,2.9-1.4-2.9,3-4,4.8-2.9Z"/>
    <path class="st24" d="M364.1,182.8c3.1-.9,4.1,4.7,1.4,5s-5-4-1.4-5Z"/>
    <path class="st39" d="M286.3,154.2c1.3.9.6,6.6-3,4.1s.7-5.7,3-4.1Z"/>
    <path class="st49" d="M236.1,272.7c1.5,4.4-4.1,6.6-4.2,2.6s2.3-2.7,4.2-2.6Z"/>
    <path class="st22" d="M327.3,176c1.3-.4,4.5,0,4,1.8-3.3,4.5-7.6-.6-4-1.8Z"/>
    <path class="st21" d="M276.6,202.2h-2.2s0-1.5,0-1.5c1-.2,2,.4,2.2,1.5Z"/>
    <path class="st44" d="M242.8,100.9c-5.6,4.7-1.3,6.8,3,2.3l.8,7.5c-1.1-1.2-6.7-3.8-6-.4s6.1,3.1,6.1,6.8-6,3.8-6.1,4.5c-.3,1.9,5,5.9,5.3,8.3.6,6.1-5.9,4.8-6.7,6.7-1.7,3.8,5.5.6,6,1.1v5.2s-2.6-3-2.6-3c-4.4.9,1.1,6.6.3,9.3s-8.6,1.6-8.9,2-.1,2.1.7,2.6c1.3.9,5.4-.5,4.5,1.5s-3.8,5.5-4.1,5.6c-1.6.8-.9-2-1.8-2.7s-2.1-.3-3.1-.3c-.2,2.7,3,6.1,1.4,8.5s-7.7,1.5-8.2,2c-1.4,1.4,1.9,3.9,3.7,3,.5.4-1,3.9-3.4,2.3s-2.7-3.1-3.4-.4,3.8,3.5,1.3,8.1-5.6,1-6.6,3.2c-1.5,3.4,4.6,1.2,5.2,1.9l-.8,6c-1.3,0-1.4-2.7-2.6-3-4.3-.9,1.3,8.2,0,9.8-2.6,1.7-6,0-8.7,1.1s-2.3,13.5-9.8,7.1-.9-.5-1.5-1.5c-1.8-3.1-3.7-11.1-4.3-14.8-5.7-35.4,18.5-75,50-90.2Z"/>
    <path class="st88" d="M151.9,185.1c9.7-2.2,6.6,14-.9,14s-5.3-12.6.9-14Z"/>
    <path class="st88" d="M201.4,116.1c10.1-1.3,8.6,15-2.4,10.3-6.1-2.6-3-9.6,2.4-10.3Z"/>
    <path class="st88" d="M169.1,185.8c11.5-2.6,10.7,13.6-.8,10.2s-4.5-9,.8-10.2Z"/>
    <path class="st88" d="M170.1,133.9c1.2,8.7-8,2.7-4.5.4s3.2-.3,4.5-.4Z"/>
    <path class="st45" d="M159.6,287.7l-1.5,6c.4-2.9-2.3-11.1-5-11.9s-4.6.6-6.9-1.3c-3-2.4-10.2-16.7-11.5-20.7-2.7-8.8-5.1-33,10.5-27.8,12.8,4.3,23.5,42.3,21.9,54.9l-3-6.7-2.7-3.4c-3.1-8.8-6.8-17.3-11.2-25.6-.3,4.8-.9,9.5-1.9,14.2-3.2,0,1.2,8.2,2.2,9.2,3.8,1.2,5.8,1.9,8.1,5.3s3.3,6.7,1,7.8Z"/>
    <path class="st89" d="M164.1,280.2c-1.4,2.8-.3,7-4.5,7.5-.8-3.9-1.6-7.9-5.3-10.1s-3.6-.8-4.8-1.9-4.6-9-4.9-10.1c-.5-2.3,1.4,0,2.2-.7,2.5-2.2-.5-14.5,3.7-16.2,5.4,10.1,10.1,20.6,13.5,31.5Z"/>
    <path class="st9" d="M197.1,223.2c0,.2,0,.6,0,.8-1.8,1.2-3.9,1.5-6.3,1.1-.7,1.7-1.6,2.6-2.7,2.7-3-.5-1.6-2.1-2.4-2.8s-3.7.8-1.5-4.5,12.4-3.7,12.9,2.8Z"/>
    <path class="st71" d="M204.6,220.2c.3-.6,1.4-2.9,1.9-3l5.5,2.3c.9,1.2-3.1,7.2-3.7,8.9l-3.8-6.8c.1-.4-.2-1.1,0-1.5Z"/>
    <path class="st51" d="M196.3,281c1.2,1.5-1.9,9.2-4.4,7.4-2.5-1.8,2-10.7,4.4-7.4Z"/>
    <path class="st31" d="M197.1,223.9c-1,2.5-6.3,4.2-9,3.8,1.2-6.5,3.7-3.5,9-3.8Z"/>
    <path class="st48" d="M179.3,250c-2.7-2.6,2.9-6.4,4.7-2.8s-2.5,4.9-4.7,2.8Z"/>
    <path class="st79" d="M184.8,266c3.7-1.2,5.4,2.6,3.3,4.1-3.6,2.5-6.6-3-3.3-4.1Z"/>
    <path class="st12" d="M196.8,242.8c3.5-1.1,3,4.7.6,5.2s-3.3-4.3-.6-5.2Z"/>
    <path class="st12" d="M205.3,277.2c-.3-.3-.7-3.9,1.9-3s-.6,4.2-1.9,3Z"/>
    <path class="st15" d="M309.6,370.2c.4-1.3,1.2-1.2,2.2-.8.2,0,.6.1.8,0,1,1.6.8,3.5.8,5.2.5.1.5.4,0,.8-9,4-25.8,3.8-26.2-9,4.8,8,14.9,5.6,22.5,3.7Z"/>
    <path class="st43" d="M269.8,383.7c6.6.9,9.6-1.3,13.5-6,0,6.6-4.2,14.9-11.5,9.6-1.4-1-2.3-1.6-2-3.6Z"/>
    <path class="st35" d="M246.8,389.9c1.3-3.5,11.3-3,10.9.8-.6,6.6-12.9,4.6-10.9-.8Z"/>
    <path class="st56" d="M314.1,376.9c1.3,1.3,1.3,3.3,0,6,0,.2,0,.5,0,.8-4,3.7-8.7,1.6-11.2-2.6,5.1-1.1,9.9.7,10.5-5.6s0-.5,0-.8h.8c-.2.5,0,1.6,0,2.2Z"/>
    <path class="st32" d="M296.5,362c2.4-.7,5.2,1.9,3.3,4.9-3.8,6.3-6.2-4-3.3-4.9Z"/>
    <path class="st2" d="M312.6,367.2c0,.8-.4,1.6-.8,2.2-.2,0-.3.9-1.1,1.2s-1-.5-1.2-.4c-7-.8-.2-7,3-3Z"/>
    <path class="st10" d="M273.6,373.2c-1,1-2.9.4-3.8.8-4.9-3.7,6.9-5.9,3.8-.8Z"/>
    <path class="st29" d="M250.9,405.6c4.1,3.8-6.2,5.1-7.3,1.6s5.7-3.1,7.3-1.6Z"/>
    <path class="st60" d="M261.2,407.7c2.2-.6,3.3,1.8,1.5,2.2s-3.3-1.8-1.5-2.2Z"/>
    <path class="st78" d="M305.1,403.2c.3,3.7-4.4,1.2-3,0s2.3.1,3,0Z"/>
    <path class="st57" d="M275.1,407.7c-.5.5-3-.3-3-1.1,0-2.2,4.4-.2,3,1.1Z"/>
    <path class="st62" d="M216.6,409.9c-3.4,2.9-5.7,2.5-4.5-2.2,2.5-.5,4.5-2.1,4.5,2.2Z"/>
    <path class="st42" d="M194.8,407.7c1.2,1.2-1.9,4.8-3,1.9s2.7-2.2,3-1.9Z"/>
    <path class="st66" d="M215.1,370.9c2.5,5.3-3.1,7.4-7.5,8.3.5-1.3-1.6-3.8-1.2-4.5s8-4.3,8.7-3.7Z"/>
    <path class="st63" d="M202.3,378.4c0,.9.7,1.8.8,2.2-.7.5-.9,1.3-.8,2.2-.3.4-1.1,1.2-1.5,1.5-.7.4-4,1.9-4.5,1.5s-1.7-5-1.5-5.2c.2-.3,6.5-3.2,7.5-2.3Z"/>
    <path class="st63" d="M209.1,358.9c1.1,3.3-.9,7.9-3.8,9.8,0,.2,0,.5,0,.8-2.8-.1-2.2-5.8-3.8-7.5l7.5-3Z"/>
    <path class="st59" d="M205.3,368.7c1-3.3,2.4-6.6,3.8-9.8s0-.5,0-.8c4.7,6.1,3.5,8.7-3.8,10.5Z"/>
    <path class="st55" d="M203.1,380.7c0,1.5,0,1.3-.8,2.2l-.7-.4c-.2-1.8-.3-2.1,1.5-1.9Z"/>
    <path class="st47" d="M314.1,382.9c0-1.9-.2-4.1,0-6l2.2-2.2c.1,2.8-.1,6.2-2.2,8.2Z"/>
    <path class="st14" d="M216.6,234.4c.9-3.7,3.3-11.3,7.5-12.5s13.2,5.7,16.5,7.6c14.6,8.6,28.2,19,42.8,27.7,5.1,1.9,8.8-2.7,13.5-2.7-.7,2.7-1.8,5-3,7.5-2.3,3.6-8,2.1-11.3.6-12.3-5.6-24.2-12.1-35.7-19.4-7.9-5.6-15.8-8.1-23.7-7.7-5.5,2.6-7.7,2.2-6.4-1.3Z"/>
    <path class="st81" d="M293.8,262.2c-1.7,3.5-1.7,6.1-6.9,5.1-8.9-1.7-27.1-13.1-36.8-17.2-8.4-3.5-16.7-8.4-25.3-2.5l-7.1,5.6c-4.4-5.3-2.7-12.7-1.1-18.7.3,1.5-1.4,2.7,1.2,1.6,5.3-2.2,8.1-3.1,13.8-1.2,17,5.5,35.9,21.2,52.5,27,3.7,1.3,5.8,1.5,9.7.4Z"/>
    <path class="st59" d="M260.1,265.2c.4,1-.6,1.3-3,.8-10.6-2.3-21.4-4.5-32.2-5.3,1.2-3.2,4.7-6.2,8.1-6.6,4-.4,22.5,8.7,27.2,11.1Z"/>
    <path class="st34" d="M221.8,209.7l.4,3c-4.2.8-7.8,7.1-11.7,2.6,2-.8,4.1-1.2,6-2.2s3-3.1,5.2-3.4Z"/>
    <path class="st87" d="M237.6,179.7c-2.3-.1-3.2,1.3-5.2,1.5l4.1-6c.8,1.2.9,3.1,1.1,4.5Z"/>
    <path class="st64" d="M214.3,202.9c-.3,1.3-4.6,3.7-5.2,3-.9-4.5,1.7-2.7,5.2-3Z"/>
    <path class="st65" d="M260.1,265.2c1.1.6,3.4,1.1,3.7,2.2-2.5.7-4.8-1.1-6.7-1.5l3-.8Z"/>
    <path class="st26" d="M313.3,294.4c-1.3-1.2-1.3.2-1.5,1.1-.5,2.1-.5,9.5-4.1,8.6-1.1-.3-1-1.5-1-2.4.1-4.1,3.1-9.2,3.6-13.3,1.4-1.3,10,9.8,10.5,11.6-3.8,4-6.4-4.6-7.5-5.6Z"/>
    <path class="st5" d="M322.3,319.9l-4.5-.8c.8-5.5,4.8-4.3,4.5.8Z"/>
    <path class="st36" d="M314.8,317.7c-.2,0-.4,3.1-2.2,1.5s2.1-1.4,2.2-1.5Z"/>
    <path class="st54" d="M311.8,317.7c-.5,1.7-2.3,1.6-3.7,1.5v-.7s3.7-.8,3.7-.8Z"/>
    <path class="st84" d="M314.8,317.7c.4-.2.7-2.1,2.2-1.5-.8,3.5-1.9,1.3-2.2,1.5Z"/>
    <path class="st18" d="M208.9,156.6c14.5-3,16,17.4-.1,14.8s-8.1-13.1.1-14.8Z"/>
    <path class="st18" d="M234.3,138.5c3.7-1.2,5.6,4.2,2,5.1s-4.6-4.3-2-5.1Z"/>
    <path class="st16" d="M146.8,244.9l-3,1.1-3.7,4.9c.2-4-1-8.7,1.9-12,.8,1,5.8,5,4.9,6Z"/>
  </g>
  <g>
    <path d="M160.1,46.1l7.5,12.1c6.2,1.5,13.9.6,19.1,4.3.6,2.1-9.6,6.5-11.5,8.2s-1.7.8-.3,1.5l49.1.9c10-.3,21.2,2,31,1.9,17.3-.2,36.4-4.2,53.9-4.8l8.2-6.7-.6-11.8c4.4.6,7.7,2.7,11.1,5,3.6-1.5,6.4-4.9,10.6-5.1,1.5,3.1.6,6.6.6,9.9.6,1.3,7.9,2.9,9.6,4.4,1.3,1.1,1,2.4,1.5,2.9s13.6,1.4,16.3,1.9c8.6,1.6,32,4.3,26.4,14-3.3,5.7-25.2,11.6-31.9,13.9l11.4,5.9c11.5,7.7,18.6,19,2.8,26.9l6.4,5c0,2.5-14.4,2.5-17,3.1-.2,1.9-1.7,13-3.9,13.2-4.8-3-6.8-8.2-9.9-12.3h-14.6c-2.4-.9.5-3.8.3-3.9l-37.9-.3c-.2-1.1-.5-1.3.9-1.3,9-.3,18.6,1,27.8.6s10.1-.5,12.1-1.2c.4-.1,4.9-4.1,5-4.4l-2.2-12.9c5.2-.8,9.5,2.5,13.9,4.2,4.6-2.8,9-6.7,14.9-7.4.3,2.1,0,4.1-.3,6.2-.6,4-3.6,7.6,1.9,9.5,21.9-9.4-2.6-24.5-15.4-29-6,.5-11.7,2.8-17.5,3.9-9.9,1.8-20.1,2.5-30,4.6-19.8,2-39.5,5-59.5,4.7.3-1.4,3.1-1.5,4.5-1.6,9.3-1.2,19.9-1,29.7-2,19-2.1,44.7-5.7,62.7-11.2.9-.3,1.9-.2,2.4-1.1-21.2-7.4-43.6-13.2-66.3-16.6-5.3-.8-14.4-2.4-19.4-2.4-10.3,0-29.3,3.7-40.1,5.5-16.2,2.7-35.7,6.2-50.8,11.5-3.5,1.2-14.1,5.2-14.1,8.8-.2,4.3,18,8.7,19.8,7.6s.6-2.7,2.3-2.5c2.1.7,2.4,3,4.3,3.8,2.7,1.2,6.6.5,9.3,2,.2,2.3-5.9.3-6.4.9l1.1,2.3h14.4c1.1,3.2-3,4.6-4.2,7.2l40.8,6.2-.2,1.2-43.1-4.1c-.8.8,5.5,11.5,3.9,13.8-1.9,1.5-12.5-6.7-15.1-7.2-2.5.7-13.7,9.9-15.3,8.7-1.6-3.4,3.5-13,1.1-15.2s-5.5-2.7-7.1-3.6-2.7-2.5-3.8-3.1c-4.7-2.4-19.8-4.8-26.6-7.1-9.6-3.3-37-9.1-38.1-18.8-1.7-14.4,32.6-18,43.9-20.1,16.7-3.2-3.8-11.4-4-18.6.9-1.4,12.9-.6,15.4-.3,1.7-.9,7.1-12.3,9.3-11.2ZM179.6,62.8c-.5-.3-10.1-.7-12.3-1.9s-5.9-8-7.4-10.4l-8.1,9.2h-11.9c-.8.7,9.4,7.7,9.9,9.2.9,2.8-4.7,12-3.5,12.9l13.2-7.2,13.7,6.6-2.6-10.4c.4-1.7,6.5-4.9,8.1-6.2.7-.6,1.4-.7,1-1.8ZM335.9,54.8l-8.6,3.8-8.1-3c2.9,6.9,1.3,9.1-4.9,13.6l11.5,1.7,5,8.1c1.7.1,1.1-.3,1.5-.9,1-1.8,2.4-8.3,3.2-9.2s6.5-2,8.3-2.1l-8.9-4.1.9-8ZM178.3,87.4c-1.4,1.5-16.9-7.3-19-8.7-2.6,1.3-14.3,8.2-16.4,8.2s-.8-1.1-.8-1.6c0-1.8.9-4,1.4-5.7l-1-1.2c-11.1,2.3-47.7,6.8-30.4,22.1s46.8,20.3,58.1,19.7c4.6-.3,5.5-.5,6.4-4.6-.4-1.2-24.1-2.5-22.3-12.5s1-2.1,1.5-2.9c4.6-6.2,26.2-11.6,34.6-13.7,16.5-4,33.7-7,50.7-9.1,0-.8-1.4-.8-2.1-.9-6.1-.5-13.4-.5-19.7-.7-14.4-.5-28.8-.8-43.3-.5l2.2,12.1ZM322.8,73.3l-32,2.4-13.2,2.2c26.6,3,52.5,9.8,77.2,18.5,10.3-2.2,41.1-13,17-20.4-10.3-3.2-21.9-2.4-32.6-3.1-3.5.4-2.4,13.1-7.8,12.2s-7.1-9.5-8.6-11.9ZM196.9,120.8c-9.2,2-11.1-2.2-16.2-7.1l-2.7,7.9-10.1,1.2c3.7,2.9,7.3,1.7,7.3,6.9,0,1.3-1.6,7-1.2,7.2l11.4-5.8,9.5,4.5c-2.9-6.2-4.1-9.9,1.8-14.9ZM367,118.3l-10.5,6.5-11.1-4.5,2.5,9.8-7,7.2,11.7-.2,6.6,9.6,2.8-10.6,12.1-1.8c-1.4-1.4-7.2-4.5-7.8-5.9-1.5-3,.5-7,.8-10.1Z"/>
    <path d="M128.8,115.3c2.4,1.1-4.1,10.7-4.1,12.8,1.2,2.1,12.7,10.3,10.8,12.3h-18.4c-2.1,1.7-7.3,13.1-10.1,13-4.8-2.8-4.6-8.9-7.5-12.8l-15.2-3c-3.4-3.7,9.7-8.7,12-10.8,1.3-2.3-4.1-11.3-.5-13.2s14.2,5.4,16.7,6.5l16.2-4.8ZM99.3,117.4l1.3,10.6-11.5,7.5,13.6,1.3,5.1,11.8c1.6-2,5.8-11.1,7.6-12,3-1.6,9-.3,12.4-.2l-7.5-7.6,3.3-8.5c-3.7.4-7.8,3.1-11.6,2.9-1.9-.1-12.4-6.1-12.7-5.6Z"/>
    <path d="M381.4,30.5l1.4,11.2c1.9,1.9,12,2.1,11.5,5-.5,2.6-10.4,3.8-12.8,5.2-.9,2.6-1,13.6-4.1,14.4-3.8,1-8.5-10.1-10.5-12.2-.9-.4-10.5,1.7-13.3,1.5s-2-.3-2-1.4l8.9-9.5c-1.6-3-4.7-5.5-4.6-9l13.7,1.8c4.1-2,7.2-6.3,11.9-7.2ZM357.8,51.7l11.2-1,7.5,11,1.7-12.4,10.2-3.1-8.1-2.1-2-9.5c-3.4,1.4-5.7,5.8-9.7,5.7s-5.7-1.3-8-1.6c.6,2.6,4.3,4.4,3.7,7.2-.4,1.9-5.5,4-6.4,5.9Z"/>
    <path d="M264.8,128.1c2.5-1.8,7.6,5.9,9.6,6.8,2.4,1,11.7.2,12.6,2,1.1,2.2-5.4,5.6-5.6,6.7-.4,2.1,6.3,9.7,3,10.9-2.8,1.2-11-4-12.6-3.6-2.9,1.7-5.1,4.5-8,6.3-8.2,5-2-8.8-2.7-10.5-8.7-6.6-16-10,1.7-11.3l2-7.3ZM271.8,136.5c-1.8-1-3.1-4.1-5.2-4.9.4,5.9-2.4,7.7-9.3,7.6,5.8,4.5,7.9,6.4,6,13.6l8.5-6.2,7.8,2.2c-.7-3.3-3.6-4.6-1-8s2.8-1.4,2.6-2.8c-.5-1.2-7-.2-9.4-1.5Z"/>
    <path d="M279.3,68.4c-2.1,1.4-9.1-2-11.5-2.6l-11.2,6.5,1.1-9.5-8.6-4.3c5.3-4,11-1.6,12.3-9.4,3.1-.7,5.6,4.4,8,4.7s3.2-.8,4.8-1c10.4-1.4.5,4.8.8,7,.2,1.9,6.3,5.5,4.3,8.4ZM263.5,52.1l-1.4.5c-.1,4.7-3,5-8,5.3,5.7,2.6,6.3,3.7,5.5,9.3,2.8-.7,4-3.3,7.2-3.8,2.9-.4,5.9.9,8.6,1.7-2.6-4.5-5.4-5.9-.5-10.4-4.6.7-9,1.8-11.3-2.7Z"/>
    <path d="M122.4,54.5c.9,2.3-3.1,5.2-2.6,7.2s6.5,5.9,5.1,7.3l-9-.3c-3.6,1.2-7.4,14.8-8.8-1.1-1.5-.6-9.3-1.5-9-3.3l7.4-4.1v-6.1c2.7-.9,6.3,3.1,8.1,3s6-3.2,8.8-2.6ZM118.3,57.3c-5.2,2.4-6.8,1.2-11.1-1.5,1.1,4.1,0,6.6-4.9,7.8l6.4,1.8,1,5.5,5-5.3,5.4.6c.7-.8-3-3.4-3.3-4.4s1.9-3.1,1.5-4.6Z"/>
    <path d="M409.5,54.9l.3,7.5,6.4,5.4-7.2.9-2.8,9.2c-2.8-1.8-4.5-4.6-4.9-7.5l-9.3,1.4c-1.3-2.4,5.3-6.4,5.5-7.6s-2.8-4.3-2.1-6.2l7,1.2,7.1-4.3ZM411.5,65.8c-4.9-.4-3.7-4.1-4.8-6.9-2.1,3-4.4,3.6-8.1,2l1.6,4.2-4.2,4,7.1-1.2,1.7,4.7,1.5-5.1,5.3-1.7Z"/>
    <path class="st41" d="M179.6,62.8c.4,1.1-.3,1.2-1,1.8-1.6,1.3-7.7,4.5-8.1,6.2l2.6,10.4-13.7-6.6-13.2,7.2c-1.2-.9,4.5-10,3.5-12.9s-10.7-8.5-9.9-9.3h11.9s8.1-9.2,8.1-9.2c1.6,2.4,5,9,7.4,10.4s11.8,1.6,12.3,1.9Z"/>
    <path class="st41" d="M367,118.3c-.3,3.1-2.3,7.1-.8,10.1.7,1.3,6.4,4.5,7.8,5.9l-12.1,1.8-2.8,10.6-6.6-9.6-11.7.2,7-7.2-2.5-9.8,11.1,4.5,10.5-6.5Z"/>
    <path class="st41" d="M335.9,54.8l-.9,8,8.9,4.1c-1.8,0-7.3,1.1-8.3,2.1s-2.2,7.4-3.2,9.2.2,1.1-1.5.9l-5-8.1-11.5-1.7c6.2-4.5,7.7-6.8,4.9-13.6l8.1,3,8.6-3.8Z"/>
    <path class="st41" d="M196.9,120.8c-5.9,5-4.7,8.7-1.8,14.9l-9.5-4.5-11.4,5.8c-.3-.2,1.2-6,1.2-7.2,0-5.2-3.7-4.1-7.3-6.9l10.1-1.2,2.7-7.9c5.1,4.9,7,9.1,16.2,7.1Z"/>
    <path class="st41" d="M99.3,117.4c.4-.5,10.8,5.5,12.7,5.6,3.8.2,7.9-2.4,11.6-2.9l-3.3,8.5,7.5,7.6c-3.4-.1-9.4-1.4-12.4.2-1.9,1-6,10-7.6,12l-5.1-11.8-13.6-1.3,11.5-7.5-1.3-10.6Z"/>
    <path class="st41" d="M357.8,51.7c1-2,6-4,6.4-5.9.6-2.8-3-4.6-3.7-7.2,2.4.3,5.8,1.6,8,1.6,4,0,6.3-4.3,9.7-5.7l2,9.5,8.1,2.1-10.2,3.1-1.7,12.4-7.5-11-11.2,1Z"/>
    <path class="st41" d="M271.8,136.5c2.4,1.3,9,.3,9.4,1.5.2,1.5-1.8,1.9-2.6,2.8-2.6,3.4.3,4.8,1,8l-7.8-2.2-8.5,6.2c1.9-7.1-.3-9.1-6-13.6,6.9.1,9.6-1.7,9.3-7.6,2.1.8,3.4,3.9,5.2,4.9Z"/>
    <path class="st41" d="M263.5,52.1c2.3,4.5,6.6,3.4,11.3,2.7-4.9,4.4-2.1,5.9.5,10.4-2.6-.8-5.7-2.1-8.6-1.7-3.2.4-4.4,3.1-7.2,3.8.8-5.6.2-6.7-5.5-9.3,5.1-.3,7.9-.5,8-5.3l1.4-.5Z"/>
    <path class="st41" d="M118.3,57.3c.4,1.6-1.8,3.2-1.5,4.6s4,3.6,3.3,4.4l-5.4-.6-5,5.3-1-5.5-6.4-1.8c4.9-1.2,6-3.8,4.9-7.8,4.3,2.6,5.9,3.8,11.1,1.5Z"/>
    <path class="st41" d="M411.5,65.8l-5.3,1.7-1.5,5.1-1.7-4.7-7.1,1.2,4.2-4-1.6-4.2c3.7,1.7,6,1,8.1-2,1.1,2.8,0,6.6,4.8,6.9Z"/>
  </g>
</svg>